<?xml version="1.0" standalone="no"?>
<!DOCTYPE svg PUBLIC "-//W3C//DTD SVG 20010904//EN"
 "http://www.w3.org/TR/2001/REC-SVG-20010904/DTD/svg10.dtd">
<svg version="1.0" xmlns="http://www.w3.org/2000/svg"
 width="213.000000pt" height="237.000000pt" viewBox="0 0 213.000000 237.000000"
 preserveAspectRatio="xMidYMid meet">

<g transform="translate(0.000000,237.000000) scale(0.100000,-0.100000)"
fill="#000000" stroke="none">
<path d="M1010 2243 c-45 -23 -74 -80 -65 -125 6 -26 90 -116 398 -425 l392
-393 -824 0 c-914 0 -863 4 -896 -66 -19 -40 -19 -58 0 -98 33 -70 -17 -66
889 -66 449 0 816 -3 816 -8 0 -4 -171 -178 -380 -387 -418 -418 -419 -419
-384 -492 24 -48 76 -76 125 -67 28 6 118 90 532 503 533 531 532 530 508 602
-8 25 -149 172 -509 532 -274 273 -504 497 -512 497 -8 0 -24 3 -35 5 -11 3
-36 -2 -55 -12z"/>
</g>
</svg>
